<svg width="311.44000244140625px" height="137.63999023437498px" xmlns="http://www.w3.org/2000/svg" viewBox="94.27999877929688 6.180004882812511 311.44000244140625 137.63999023437498" style="background: rgba(0, 0, 0, 0) none repeat scroll 0% 0%;" preserveAspectRatio="xMidYMid"><defs><filter id="editing-hole" x="-100%" y="-100%" width="300%" height="300%"><feFlood flood-color="#ffffff" result="black"></feFlood><feMorphology operator="dilate" radius="2" in="SourceGraphic" result="erode"></feMorphology><feGaussianBlur in="erode" stdDeviation="4" result="blur"></feGaussianBlur><feOffset in="blur" dx="2" dy="2" result="offset"></feOffset><feComposite operator="atop" in="offset" in2="black" result="merge"></feComposite><feComposite operator="in" in="merge" in2="SourceGraphic" result="inner-shadow"></feComposite></filter></defs><g filter="url(#editing-hole)"><g transform="translate(144.4599962234497, 99.96000099182129)"><path d="M43.46-34.18L43.46-34.18Q48.19-34.18 50.62-31.26L50.62-31.26L50.62-31.26Q53.06-28.35 53.06-23.17L53.06-23.17L53.06 0L47.42 0L47.42-22.40L47.42-22.40Q47.42-25.60 46.08-27.36L46.08-27.36L46.08-27.36Q44.74-29.12 41.98-29.12L41.98-29.12L41.98-29.12Q39.17-29.12 37.25-28.10L37.25-28.10L37.25-28.10Q35.33-27.07 32.83-24.77L32.83-24.77L32.83-24.77Q32.90-24.26 32.90-23.17L32.90-23.17L32.90 0L27.26 0L27.26-22.40L27.26-22.40Q27.26-25.60 25.92-27.36L25.92-27.36L25.92-27.36Q24.58-29.12 21.82-29.12L21.82-29.12L21.82-29.12Q19.01-29.12 17.09-28.13L17.09-28.13L17.09-28.13Q15.17-27.14 12.74-24.83L12.74-24.83L12.74 0L7.10 0L7.10-25.98L5.70-33.41L11.33-33.41L12.22-28.80L12.22-28.80Q15.10-31.68 17.44-32.93L17.44-32.93L17.44-32.93Q19.78-34.18 23.30-34.18L23.30-34.18L23.30-34.18Q26.62-34.18 28.83-32.70L28.83-32.70L28.83-32.70Q31.04-31.23 32.06-28.48L32.06-28.48L32.06-28.48Q35.14-31.55 37.50-32.86L37.50-32.86L37.50-32.86Q39.87-34.18 43.46-34.18L43.46-34.18ZM73.79-45.31L73.79-33.41L83.01-33.41L83.01-28.54L73.79-28.54L73.79-9.41L73.79-9.41Q73.79-7.04 74.85-5.60L74.85-5.60L74.85-5.60Q75.90-4.16 77.95-4.16L77.95-4.16L77.95-4.16Q79.36-4.16 80.48-4.45L80.48-4.45L80.48-4.45Q81.60-4.74 83.01-5.38L83.01-5.38L83.01-0.38L83.01-0.38Q81.54 0.32 80.19 0.54L80.19 0.54L80.19 0.54Q78.85 0.77 76.93 0.77L76.93 0.77L76.93 0.77Q72.83 0.77 70.50-1.86L70.50-1.86L70.50-1.86Q68.16-4.48 68.16-8.83L68.16-8.83L68.16-28.54L61.76-28.54L61.76-33.41L68.16-33.41L68.16-42.37L73.79-45.31ZM106.94-34.18L108.93-34.18L108.93-27.97L107.97-27.97L107.97-27.97Q104.96-27.97 102.56-26.88L102.56-26.88L102.56-26.88Q100.16-25.79 98.56-23.74L98.56-23.74L98.56 0L92.93 0L92.93-25.98L91.52-33.41L97.15-33.41L98.30-27.46L98.30-27.46Q100.93-31.30 102.75-32.74L102.75-32.74L102.75-32.74Q104.58-34.18 106.94-34.18L106.94-34.18ZM121.60-40.96L121.60-40.96Q119.81-40.96 118.69-42.11L118.69-42.11L118.69-42.11Q117.57-43.26 117.57-45.06L117.57-45.06L117.57-45.06Q117.57-46.85 118.69-48L118.69-48L118.69-48Q119.81-49.15 121.60-49.15L121.60-49.15L121.60-49.15Q123.39-49.15 124.51-48L124.51-48L124.51-48Q125.63-46.85 125.63-45.06L125.63-45.06L125.63-45.06Q125.63-43.26 124.51-42.11L124.51-42.11L124.51-42.11Q123.39-40.96 121.60-40.96L121.60-40.96ZM118.78-33.41L124.42-33.41L124.42 0L118.78 0L118.78-33.41ZM154.82-34.18L154.82-34.18Q159.55-34.18 161.98-31.26L161.98-31.26L161.98-31.26Q164.42-28.35 164.42-23.17L164.42-23.17L164.42 0L158.78 0L158.78-22.40L158.78-22.40Q158.78-25.60 157.44-27.36L157.44-27.36L157.44-27.36Q156.10-29.12 153.34-29.12L153.34-29.12L153.34-29.12Q150.21-29.12 148.06-28.10L148.06-28.10L148.06-28.10Q145.92-27.07 143.30-24.77L143.30-24.77L143.30 0L137.66 0L137.66-25.98L136.26-33.41L141.89-33.41L142.78-28.74L142.78-28.74Q145.79-31.62 148.38-32.90L148.38-32.90L148.38-32.90Q150.98-34.18 154.82-34.18L154.82-34.18ZM195.78-34.18L195.78-34.18Q200.51-34.18 202.94-31.26L202.94-31.26L202.94-31.26Q205.38-28.35 205.38-23.17L205.38-23.17L205.38 0L199.74 0L199.74-22.40L199.74-22.40Q199.74-25.60 198.40-27.36L198.40-27.36L198.40-27.36Q197.06-29.12 194.30-29.12L194.30-29.12L194.30-29.12Q191.17-29.12 189.02-28.10L189.02-28.10L189.02-28.10Q186.88-27.07 184.26-24.77L184.26-24.77L184.26 0L178.62 0L178.62-48.26L184.26-48.26L184.26-29.25L184.26-29.25Q187.07-31.81 189.60-32.99L189.60-32.99L189.60-32.99Q192.13-34.18 195.78-34.18L195.78-34.18Z" fill="#ffffff"></path></g></g><style>text {
  font-size: 64px;
  font-family: Arial Black;
  dominant-baseline: central;
  text-anchor: middle;
}</style></svg>